<?xml version="1.0"?><svg width="640" height="480" xmlns="http://www.w3.org/2000/svg">
 <metadata id="metadata7">image/svg+xml</metadata>
 <g>
  <title>Layer 1</title>
  <g id="layer2"/>
  <g id="g3015">
   <path fill="none" stroke="#000000" stroke-width="1px" d="m276.213837,497.523285l29.150543,0c-7.101624,-165.230042 0.024292,-330.456482 4.601807,-495.682922l-51.217773,7.457952l17.465424,488.22497z" id="path3013"/>
   <path fill="none" stroke="#000000" stroke-width="1px" d="m203.117416,498.375885c20.047165,-158.196686 29.287186,-331.309082 8.662811,-489.505577l42.955765,-1.757486l7.669556,24.607994l4.604767,-24.607994l19.944,0l-11.189972,491.137758l-72.646927,0.125305z" id="path3011"/>
  </g>
  <path fill="none" stroke="#000000" stroke-width="1px" d="m464.770386,33.478302l29.533203,20.215977l0.382721,27.242527l-16.107666,11.425354l-4.987518,29.00341l14.959473,0l-4.218964,86.568405l-13.425629,2.199524l0,10.106277l9.206573,57.126373l-34.903473,15.817383l-7.286926,54.491852l-59.449127,-80.418915l19.178497,-217.07695l67.118835,-16.701218z" id="path3009"/>
  <path fill="none" stroke="#000000" stroke-width="1px" id="path3028" d="m161.200409,57.539974l15.457703,13.669903l34.171432,2.488396l1.087326,-22.996861l-30.647964,0l-16.271667,-3.104172l-3.796829,9.942734z"/>
  <path fill="#ffffff" stroke="#000000" stroke-width="1px" d="m14.642929,44.611172l149.70433,2.488392l21.696594,22.370247l17.356018,0l4.340485,-27.343418l132.345245,7.457951l132.345245,-27.343418l-13.015533,49.717274l-28.205872,2.484779l30.374603,14.915909l-2.168732,9.942734l-45.56189,7.457954l47.730621,14.912292l-4.340485,77.060692l-34.712128,4.973175l32.543304,17.400681l-4.337524,54.686829l-49.902374,9.942749l47.730621,7.457947l6.509277,69.602753c-141.864563,-29.737732 -295.289795,-29.671661 -453.450352,-17.400696l8.681022,-87.003418l47.730718,-4.973175l-43.393196,-7.454346l0,-52.202057l15.187304,-9.94635l-17.356018,-7.45433l4.337521,-12.431137l39.055586,-4.969559l-39.055586,-7.457947l0,-47.232498l32.546381,-12.427513l-36.883902,-2.484779l2.168715,-44.747715z" id="path2997"/>
  <path fill="none" stroke="#000000" stroke-width="1px" d="m448.56546,293.816956l29.290253,0.619385l10.849762,65.252563l-32.002625,1.242401l-8.13739,-67.114349z" id="path2999"/>
  <path fill="none" stroke="#000000" stroke-width="1px" d="m449.024719,275.170258l29.543304,3.107788l0,-56.552231l-24.127716,-1.242401l-5.415588,54.686844z" id="path3001"/>
  <path fill="none" stroke="#000000" stroke-width="1px" d="m455.6185,196.247787l27.118378,10.56572l6.509308,-85.761032l-26.577789,1.242393l-7.049896,73.952919z" id="path3003"/>
  <path fill="none" stroke="#000000" stroke-width="1px" d="m458.871582,99.30162l18.44342,8.077339l14.643646,3.730782l1.084351,-16.781296l-14.102936,-1.865387l-16.271667,-3.104172l-3.796814,9.942734z" id="path3005"/>
  <path fill="none" stroke="#000000" stroke-width="1px" d="m459.123718,71.742393l35.996887,10.854614l3.253143,-46.609497l-25.493408,-13.050516l-13.756622,48.805399z" id="path3007"/>
  <path fill="none" fill-rule="nonzero" stroke="#333333" stroke-miterlimit="4" stroke-dashoffset="0" d="m262.19635,82.521385c0,9.266846 -6.556763,16.779175 -14.644852,16.779175c-8.088181,0 -14.644943,-7.512329 -14.644943,-16.779175c0,-9.266838 6.556763,-16.779175 14.644943,-16.779175c8.088089,0 14.644852,7.512337 14.644852,16.779175z" id="path3030"/>
 </g>
</svg>